<?xml version="1.0" standalone="no"?>
<!DOCTYPE svg PUBLIC "-//W3C//DTD SVG 20010904//EN"
 "http://www.w3.org/TR/2001/REC-SVG-20010904/DTD/svg10.dtd">
<svg version="1.0" xmlns="http://www.w3.org/2000/svg"
 width="200.000000pt" height="200.000000pt" viewBox="0 0 200.000000 200.000000"
 preserveAspectRatio="xMidYMid meet">
<metadata>
Created by potrace 1.11, written by Peter Selinger 2001-2013
</metadata>
<g transform="translate(0.000000,200.000000) scale(0.100000,-0.100000)"
fill="#000000" stroke="none">
<path d="M798 1855 c-358 -56 -641 -288 -739 -605 -33 -106 -33 -274 0 -380
88 -285 327 -501 649 -585 274 -73 601 -16 839 146 76 51 196 178 242 256 171
288 135 620 -93 869 -72 80 -153 142 -248 193 -81 44 -230 96 -250 88 -7 -3
-3 -6 9 -6 12 -1 24 -5 27 -9 3 -5 -50 -63 -117 -129 -88 -87 -142 -131 -192
-158 -117 -63 -243 -160 -239 -183 4 -17 -17 -51 -33 -56 -44 -13 -114 -18
-126 -8 -6 5 -30 13 -52 16 -22 4 -59 18 -82 32 -75 43 -88 30 -54 -54 11 -26
30 -74 42 -107 13 -33 27 -63 31 -66 11 -7 13 -87 4 -97 -4 -4 -31 -34 -59
-66 -29 -33 -88 -97 -131 -143 -91 -95 -89 -95 -129 8 -136 346 46 755 416
936 143 70 257 100 435 112 l107 8 -85 1 c-47 0 -124 -6 -172 -13z m618 -226
c-104 -11 -175 -26 -261 -55 -65 -22 -70 -22 -88 -7 -18 17 -17 17 5 26 67 26
201 46 308 45 l115 -1 -79 -8z m144 -163 c0 -2 -19 -16 -42 -31 -24 -16 -80
-64 -126 -108 -56 -56 -85 -78 -93 -70 -12 12 81 96 184 166 65 45 77 52 77
43z m-948 -291 c10 -39 33 -55 80 -55 29 0 45 7 63 26 l24 26 59 -21 c62 -22
205 -100 231 -125 13 -13 4 -20 -75 -58 -88 -43 -90 -43 -199 -43 l-110 0 -57
37 c-60 39 -110 99 -154 185 -38 75 -32 82 57 69 69 -10 73 -13 81 -41z m53
39 c25 -17 25 -34 -1 -34 -8 0 -14 7 -14 15 0 8 -4 15 -10 15 -5 0 -10 5 -10
10 0 14 7 13 35 -6z m1170 -125 c12 -12 -160 -140 -244 -182 -80 -40 -89 -42
-171 -42 -78 0 -91 3 -128 28 -38 25 -99 103 -89 113 2 2 36 15 75 28 56 19
72 22 72 11 0 -18 48 -55 70 -55 31 0 70 39 70 70 0 31 12 35 120 42 52 4 217
-6 225 -13z m-439 -30 c10 -17 -13 -36 -27 -22 -12 12 -4 33 11 33 5 0 12 -5
16 -11z"/>
<path d="M1078 1853 c12 -2 30 -2 40 0 9 3 -1 5 -23 4 -22 0 -30 -2 -17 -4z"/>
<path d="M1148 1843 c6 -2 18 -2 25 0 6 3 1 5 -13 5 -14 0 -19 -2 -12 -5z"/>
</g>
</svg>
